<?xml version="1.0" encoding="UTF-8"?>
<!DOCTYPE svg PUBLIC "-//W3C//DTD SVG 1.1//EN" "http://www.w3.org/Graphics/SVG/1.1/DTD/svg11.dtd">
<svg xmlns="http://www.w3.org/2000/svg" version="1.1" width="512px" height="512px" style="shape-rendering:geometricPrecision; text-rendering:geometricPrecision; image-rendering:optimizeQuality; fill-rule:evenodd; clip-rule:evenodd" xmlns:xlink="http://www.w3.org/1999/xlink">
<g><path style="opacity:0.999" fill="#e3e6e6" d="M 146.5,-0.5 C 219.167,-0.5 291.833,-0.5 364.5,-0.5C 380.484,3.98523 390.651,14.3186 395,30.5C 395.667,180.5 395.667,330.5 395,480.5C 390.651,496.681 380.484,507.015 364.5,511.5C 291.833,511.5 219.167,511.5 146.5,511.5C 130.516,507.015 120.349,496.681 116,480.5C 115.333,330.5 115.333,180.5 116,30.5C 120.349,14.3186 130.516,3.98523 146.5,-0.5 Z"/></g>
<g><path style="opacity:1" fill="#bfc3c5" d="M 228.5,27.5 C 246.17,27.3334 263.836,27.5001 281.5,28C 287.462,30.4048 288.962,34.5714 286,40.5C 284.829,41.8932 283.329,42.7265 281.5,43C 263.833,43.6667 246.167,43.6667 228.5,43C 221.889,37.798 221.889,32.6314 228.5,27.5 Z"/></g>
<g><path style="opacity:1" fill="#3f5e6d" d="M 144.5,71.5 C 218.167,71.3333 291.834,71.5 365.5,72C 367.329,72.2735 368.829,73.1068 370,74.5C 371.663,194.086 371.996,313.753 371,433.5C 370.727,435.329 369.893,436.829 368.5,438C 293.89,439.657 219.224,439.991 144.5,439C 143.069,438.535 141.903,437.701 141,436.5C 139.339,316.556 139.006,196.556 140,76.5C 141.025,74.313 142.525,72.6464 144.5,71.5 Z"/></g>
<g><path style="opacity:1" fill="#bfc3c5" d="M 250.5,455.5 C 267.491,454.658 275.658,462.658 275,479.5C 271.283,491.53 263.116,496.696 250.5,495C 236.617,489.365 232.451,479.532 238,465.5C 241.191,460.837 245.358,457.503 250.5,455.5 Z"/></g>
</svg>
